<?xml version="1.0" encoding="UTF-8" standalone="no"?>
<!-- Created with Inkscape (http://www.inkscape.org/) -->

<svg
   xmlns:dc="http://purl.org/dc/elements/1.1/"
   xmlns:cc="http://creativecommons.org/ns#"
   xmlns:rdf="http://www.w3.org/1999/02/22-rdf-syntax-ns#"
   xmlns:svg="http://www.w3.org/2000/svg"
   xmlns="http://www.w3.org/2000/svg"
   xmlns:sodipodi="http://sodipodi.sourceforge.net/DTD/sodipodi-0.dtd"
   xmlns:inkscape="http://www.inkscape.org/namespaces/inkscape"
   id="svg14349"
   sodipodi:docname="check.svg"
   viewBox="0 0 60.049 57.307"
   version="1.1"
   inkscape:version="0.92.4 (unknown)">
  <defs
     id="defs16" />
  <sodipodi:namedview
     id="base"
     bordercolor="#666666"
     inkscape:pageshadow="2"
     inkscape:window-y="31"
     fit-margin-left="10"
     pagecolor="#ffffff"
     fit-margin-top="10"
     inkscape:window-maximized="1"
     inkscape:zoom="1.979899"
     inkscape:window-x="0"
     inkscape:window-height="972"
     showgrid="false"
     borderopacity="1.0"
     inkscape:current-layer="layer2"
     inkscape:cx="-32.605077"
     inkscape:cy="15.44487"
     fit-margin-right="10"
     fit-margin-bottom="10"
     inkscape:window-width="1920"
     inkscape:pageopacity="0.0"
     inkscape:document-units="px" />
  <g
     id="layer1"
     inkscape:label="Layer 1"
     inkscape:groupmode="layer"
     transform="translate(-344.98 -490.5)">
    <g
       id="g3731">
      <g
         transform="matrix(.062075 0 0 .062075 397.27 500.41)"
         id="g13766">
        <path
           inkscape:connector-curvature="0"
           style="stroke:#000000;stroke-width:1px;fill:#24221c"
           sodipodi:nodetypes="ccssccsssssc"
           d="m-633.41 387.26 58.734 191.17s9.2132 33.398 66.796 19.578 415.75-110.56 452.6-123.23c36.853-12.668 5.7583-49.521 5.7583-49.521l-89.83-149.71s-11.517-96.739-18.426-132.44c-6.9099-35.701-16.123-86.374-16.123-112.86 0-26.488-24.185-28.791-47.218-27.64-23.033 1.1517-403.08 79.464-435.33 89.829-32.246 10.365-23.033 31.095-21.881 65.644 1.1516 34.55 44.914 229.18 44.914 229.18z"
           id="path13743" />
        <path
           inkscape:connector-curvature="0"
           style="stroke:#000000;stroke-width:1px;fill:#f4eed7"
           d="m-611.53 358.47 61.04 201.54 489.45-125.53-97.89-179.66z"
           id="path13745" />
        <path
           inkscape:connector-curvature="0"
           style="stroke:#000000;stroke-width:5;fill:none"
           d="m-580.43 393.02 139.35-34.55"
           id="path13747" />
        <path
           inkscape:connector-curvature="0"
           style="stroke:#000000;stroke-width:5;fill:none"
           d="m-565.46 437.93 337.43-84.07"
           id="path13749" />
        <path
           inkscape:connector-curvature="0"
           style="stroke:#000000;stroke-width:5;fill:none"
           d="m-538.97 536.97 125.53-33.398"
           id="path13751" />
        <path
           transform="rotate(-12.241)"
           inkscape:connector-curvature="0"
           sodipodi:nodetypes="sssssssss"
           d="m-289.89 273.36 80.3 1.2388c0.59806 0.009 0.91865 0.50361 1.0797 1.0797l6.2876 22.495c0.16102 0.57606-0.48153 1.0797-1.0797 1.0797h-83.063c-0.59814 0-0.99181-0.48803-1.0797-1.0797l-3.5249-23.733c-0.0879-0.59165 0.48161-1.0889 1.0797-1.0797z"
           style="fill-opacity:.82745;stroke:#000000;stroke-linecap:round;stroke-width:5;fill:#f4eed7"
           id="rect13753" />
        <path
           inkscape:connector-curvature="0"
           style="stroke:#000000;stroke-width:1px;fill:none"
           d="m-280.13 460.44h6.5147c0.81434 0 1.653 0.19751 2.443 0 1.4181-0.35454 2.9023-0.75161 4.0717-1.6287 1.0858-0.81434 1.4833-2.2976 2.443-3.2574 0.95971-0.95971 2.1716-1.6287 3.2574-2.443 1.0858-0.81434 2.0935-1.7447 3.2574-2.443 2.0764-1.2458 6.5005-3.2526 8.9578-4.0717 2.1235-0.70784 4.3624-1.0137 6.5147-1.6287 0.82537-0.23582 1.6013-0.646 2.443-0.81434 0.88187-0.17638 4.8299 0 5.7004 0h4.886c0.81435 0 1.635-0.10101 2.443 0 4.7865 0.59831 3.7852 1.2308 8.9578 1.6287 1.8945 0.14574 3.8003 0 5.7004 0h6.5147 5.7004c1.0858 0 2.18 0.13468 3.2574 0 2.1359-0.26699 4.1371-0.87974 5.7004-2.443 0.69206-0.69206 0.93662-1.751 1.6287-2.443 5.3919-5.3919 1.2682 0.43255 5.7004-4.886 0.62656-0.75187 1.0173-1.6788 1.6287-2.443 0.47562-0.59452 3.7715-3.4714 4.0717-4.0717 0.1214-0.24279-0.19194-0.6224 0-0.81434s0.54289 0 0.81434 0h6.5147 15.472 3.2574c1.0858 0 2.1825 0.15355 3.2574 0 0.84977-0.12139 1.6103-0.60615 2.443-0.81434 0.26334-0.0658 0.55682 0.0858 0.81434 0 0.57583-0.19194 1.0529-0.6224 1.6287-0.81434 0.7211-0.24037 3.2645 0.20181 4.0717 0 0.58886-0.14722 1.0335-0.69531 1.6287-0.81435 0.79853-0.1597 1.6445 0.15971 2.443 0 0.59519-0.11903 1.0651-0.58891 1.6287-0.81434 0.797-0.3188 1.6753-0.43046 2.443-0.81434 1.7508-0.87539 3.0686-2.5304 4.8861-3.2574 0.50406-0.20162 1.0858 0 1.6287 0 0.5429-0.54289 1.0145-1.168 1.6287-1.6287 1.4231-1.0673 2.4294-0.80752 4.0717-1.6287 0.34336-0.17167 0.45016-0.69294 0.81435-0.81434 3.5258-1.1753-0.29931 1.5568 3.2574-0.81434 1.1983-0.79885 2.0591-2.4585 3.2574-3.2574 1.4036-0.93573 1.231-0.81434 2.443-0.81434 0.27145 0 0.57155 0.1214 0.81434 0 1.3969-0.69843 0.57421-1.8688 2.443 0"
           id="path13758" />
        <path
           inkscape:connector-curvature="0"
           style="stroke:#000000;stroke-width:1px;fill:none"
           d="m-278.7 300.88c3.6456-1.4582 2.6031-1.1548 6.9099-2.3033 3.0587-0.81566 6.1694-1.4336 9.2132-2.3033 1.1672-0.3335 2.3033-0.76777 3.455-1.1516 0.57583-0.19195 1.1846-0.30438 1.7275-0.57583 0.24279-0.1214 0.34997-0.42525 0.57583-0.57583 0.28998-1.2686 1.1846-0.30438 1.7275-0.57582 0.24279-0.1214 0.31831-0.48999 0.57582-0.57583 0.36419-0.1214 0.77923 0.0931 1.1517 0 0.41638-0.1041 0.75716-0.40676 1.1516-0.57583 0.95007-0.40717 1.8891-0.85464 2.8791-1.1516 0.93745-0.28123 1.9506-0.26633 2.8791-0.57583 5.3797-1.7932-0.39212-0.40777 4.0308-2.3033 0.72741-0.31175 1.5227-0.44573 2.3033-0.57583 0.37866-0.0631 0.76777 0 1.1517 0h4.0308 9.7891 27.64 3.455c0.57583 0 1.1688 0.13966 1.7275 0 0.26335-0.0658 0.31831-0.48999 0.57583-0.57583 0.36418-0.12139 0.76777 0 1.1516 0h3.455c0.38389 0 0.77923 0.0931 1.1517 0 0.41638-0.10409 0.76777-0.38388 1.1516-0.57582 1.0237-0.51185 1.6932-0.91447 2.8791-1.1517 1.0897-0.21794 1.7275 0.4562 1.7275-1.1516"
           id="path13764" />
      </g>
    </g>
  </g>
  <g
     inkscape:groupmode="layer"
     id="layer2"
     inkscape:label="Layer 2" />
  <metadata
     id="metadata13">
    <rdf:RDF>
      <cc:Work>
        <dc:format>image/svg+xml</dc:format>
        <dc:type
           rdf:resource="http://purl.org/dc/dcmitype/StillImage" />
        <cc:license
           rdf:resource="http://creativecommons.org/licenses/publicdomain/" />
        <dc:publisher>
          <cc:Agent
             rdf:about="http://openclipart.org/">
            <dc:title>Openclipart</dc:title>
          </cc:Agent>
        </dc:publisher>
        <dc:title></dc:title>
      </cc:Work>
      <cc:License
         rdf:about="http://creativecommons.org/licenses/publicdomain/">
        <cc:permits
           rdf:resource="http://creativecommons.org/ns#Reproduction" />
        <cc:permits
           rdf:resource="http://creativecommons.org/ns#Distribution" />
        <cc:permits
           rdf:resource="http://creativecommons.org/ns#DerivativeWorks" />
      </cc:License>
    </rdf:RDF>
  </metadata>
</svg>
